<?xml version="1.0" encoding="UTF-8" standalone="no"?>
<svg
   xmlns:dc="http://purl.org/dc/elements/1.1/"
   xmlns:cc="http://creativecommons.org/ns#"
   xmlns:rdf="http://www.w3.org/1999/02/22-rdf-syntax-ns#"
   xmlns:svg="http://www.w3.org/2000/svg"
   xmlns="http://www.w3.org/2000/svg"
   xmlns:sodipodi="http://sodipodi.sourceforge.net/DTD/sodipodi-0.dtd"
   xmlns:inkscape="http://www.inkscape.org/namespaces/inkscape"
   version="1.1"
   x="0px"
   y="0px"
   viewBox="0 0 55 55"
   xml:space="preserve"
   id="svg10"
   sodipodi:docname="noun_Package_1946669.svg"
   width="55"
   height="55"
   inkscape:version="0.92.4 (5da689c313, 2019-01-14)"><metadata
     id="metadata16"><rdf:RDF><cc:Work
         rdf:about=""><dc:format>image/svg+xml</dc:format><dc:type
           rdf:resource="http://purl.org/dc/dcmitype/StillImage" /><dc:title></dc:title></cc:Work></rdf:RDF></metadata><defs
     id="defs14" /><sodipodi:namedview
     pagecolor="#ffffff"
     bordercolor="#666666"
     borderopacity="1"
     objecttolerance="10"
     gridtolerance="10"
     guidetolerance="10"
     inkscape:pageopacity="0"
     inkscape:pageshadow="2"
     inkscape:window-width="1920"
     inkscape:window-height="1013"
     id="namedview12"
     showgrid="false"
     inkscape:zoom="1.1125147"
     inkscape:cx="24.000057"
     inkscape:cy="16"
     inkscape:window-x="-9"
     inkscape:window-y="-9"
     inkscape:window-maximized="1"
     inkscape:current-layer="svg10" /><path
     d="M 26.500001,6.7885765 7.2866226,15.07593 c -0.2362061,0.101929 -0.409668,0.292359 -0.5096436,0.518555 l -0.00891,-0.0039 -3.1826172,7.207519 c -0.2148438,0.486328 -0.011719,1.055176 0.4624023,1.295899 l 2.6347656,1.335815 v 13.899536 c 0,0.399414 0.2373047,0.759766 0.6040039,0.917969 l 19.8173834,8.547852 c 0.01367,0.0059 0.02881,0.0036 0.04266,0.0089 0.114137,0.0434 0.232179,0.07312 0.353334,0.07312 0.121155,0 0.239197,-0.02972 0.353332,-0.07318 0.01385,-0.0052 0.02899,-0.0029 0.04266,-0.0089 L 47.713376,40.247263 C 48.080075,40.08906 48.31738,39.728708 48.31738,39.329294 V 25.429812 l 2.634765,-1.335815 c 0.474122,-0.240723 0.677247,-0.80957 0.462403,-1.295899 l -3.182617,-7.207519 -0.0089,0.0039 c -0.09998,-0.226196 -0.273437,-0.416626 -0.509643,-0.518554 L 28.500001,6.7885765 v -0.665771 h -2 z M 8.1966565,17.305362 26.092835,25.024539 22.647462,31.281497 5.7978531,22.738528 Z m 0.485962,9.138366 13.9223625,7.058472 c 0.144532,0.07324 0.299317,0.108398 0.451172,0.108398 0.353516,0 0.695313,-0.1875 0.876953,-0.517578 l 2.566895,-4.66156 V 46.356692 L 8.6826185,38.671145 Z M 46.317384,38.671145 28.500001,46.356692 V 28.431094 l 2.567383,4.661926 c 0.18164,0.330078 0.523437,0.517578 0.876953,0.517578 0.151855,0 0.30664,-0.03516 0.451172,-0.108398 l 13.921875,-7.058411 z m -13.964356,-7.389648 -3.445801,-6.256958 17.896119,-7.719177 2.398803,5.433166 z M 44.792482,15.994387 27.500001,23.453372 10.207522,15.994387 26.500001,8.9667385 v 5.0916745 l -1.521484,-1.480529 -1.394532,1.433593 3.916016,3.810058 3.916016,-3.810058 -1.394532,-1.433594 -1.521484,1.48053 V 8.9667385 Z"
     id="path2"
     inkscape:connector-curvature="0" /><rect
     x="23.000057"
     y="8"
     width="2"
     height="2.3369141"
     id="rect4" /></svg>